<?xml version="1.0" encoding="UTF-8"?>
<svg xmlns="http://www.w3.org/2000/svg" xmlns:xlink="http://www.w3.org/1999/xlink" width="1080" height="412.519" viewBox="0 0 1080 412.519">
<path fill-rule="nonzero" fill="rgb(0%, 0%, 0%)" fill-opacity="1" d="M 491.054688 265.238281 L 490.835938 265.238281 C 449.027344 265.238281 415.136719 299.128906 415.136719 340.9375 L 415.136719 339.878906 L 566.753906 339.878906 L 566.753906 340.9375 C 566.753906 299.128906 532.859375 265.238281 491.054688 265.238281 "/>
<path fill-rule="nonzero" fill="rgb(0%, 0%, 0%)" fill-opacity="1" d="M 226.132812 74.585938 L 226.132812 136.832031 C 221.878906 101.769531 192.0625 74.585938 155.851562 74.585938 L 145.949219 74.585938 C 106.816406 74.585938 75.09375 106.3125 75.09375 145.445312 L 75.09375 338.6875 L 226.707031 338.6875 L 226.707031 276.441406 C 230.964844 311.503906 260.777344 338.6875 296.988281 338.6875 L 306.890625 338.6875 C 346.023438 338.6875 377.75 306.964844 377.75 267.832031 L 377.75 74.585938 Z M 226.132812 74.585938 "/>
<path fill-rule="nonzero" fill="rgb(0%, 0%, 0%)" fill-opacity="1" d="M 427.820312 92.4375 L 429.605469 92.4375 L 474.324219 139.882812 L 482.21875 139.882812 L 482.21875 74.121094 L 469.628906 74.121094 L 469.628906 116.585938 L 429.511719 74.121094 L 415.136719 74.121094 L 415.136719 139.882812 L 427.820312 139.882812 Z M 427.820312 92.4375 "/>
<path fill-rule="nonzero" fill="rgb(0%, 0%, 0%)" fill-opacity="1" d="M 528.769531 85.769531 L 531.679688 85.769531 L 543.675781 112.542969 L 516.820312 112.542969 Z M 512.167969 122.972656 L 548.347656 122.972656 L 555.921875 139.882812 L 570.011719 139.882812 L 540.324219 74.121094 L 520.21875 74.121094 L 490.53125 139.882812 L 504.621094 139.882812 Z M 512.167969 122.972656 "/>
<path fill-rule="nonzero" fill="rgb(0%, 0%, 0%)" fill-opacity="1" d="M 589.46875 139.882812 L 602.339844 139.882812 L 602.339844 86.332031 L 628.269531 86.332031 L 628.269531 74.121094 L 563.539062 74.121094 L 563.539062 86.332031 L 589.46875 86.332031 Z M 589.46875 139.882812 "/>
<path fill-rule="nonzero" fill="rgb(0%, 0%, 0%)" fill-opacity="1" d="M 649.585938 74.121094 L 636.902344 74.121094 L 636.902344 139.882812 L 649.585938 139.882812 Z M 649.585938 74.121094 "/>
<path fill-rule="nonzero" fill="rgb(0%, 0%, 0%)" fill-opacity="1" d="M 698.25 139.882812 L 729.441406 74.121094 L 715.351562 74.121094 L 693.695312 119.179688 L 672.039062 74.121094 L 657.945312 74.121094 L 689.136719 139.882812 Z M 698.25 139.882812 "/>
<path fill-rule="nonzero" fill="rgb(0%, 0%, 0%)" fill-opacity="1" d="M 787.832031 128.796875 L 750.441406 128.796875 L 750.441406 111.605469 L 786.140625 111.605469 L 786.140625 101.832031 L 750.441406 101.832031 L 750.441406 85.207031 L 787.078125 85.207031 L 787.078125 74.121094 L 737.757812 74.121094 L 737.757812 139.882812 L 787.832031 139.882812 Z M 787.832031 128.796875 "/>
<path fill-rule="nonzero" fill="rgb(0%, 0%, 0%)" fill-opacity="1" d="M 441.429688 198.214844 L 453.375 171.441406 L 456.289062 171.441406 L 468.28125 198.214844 Z M 444.824219 159.792969 L 415.136719 225.554688 L 429.230469 225.554688 L 436.773438 208.648438 L 472.953125 208.648438 L 480.527344 225.554688 L 494.621094 225.554688 L 464.929688 159.792969 Z M 444.824219 159.792969 "/>
<path fill-rule="nonzero" fill="rgb(0%, 0%, 0%)" fill-opacity="1" d="M 557.46875 202.257812 L 517.355469 159.792969 L 502.980469 159.792969 L 502.980469 225.554688 L 515.664062 225.554688 L 515.664062 178.109375 L 517.445312 178.109375 L 562.167969 225.554688 L 570.058594 225.554688 L 570.058594 159.792969 L 557.46875 159.792969 Z M 557.46875 202.257812 "/>
<path fill-rule="nonzero" fill="rgb(0%, 0%, 0%)" fill-opacity="1" d="M 604.664062 198.214844 L 616.609375 171.441406 L 619.523438 171.441406 L 631.515625 198.214844 Z M 608.0625 159.792969 L 578.375 225.554688 L 592.464844 225.554688 L 600.007812 208.648438 L 636.1875 208.648438 L 643.761719 225.554688 L 657.855469 225.554688 L 628.167969 159.792969 Z M 608.0625 159.792969 "/>
<path fill-rule="nonzero" fill="rgb(0%, 0%, 0%)" fill-opacity="1" d="M 679.085938 159.792969 L 666.214844 159.792969 L 666.214844 225.554688 L 715.164062 225.554688 L 715.164062 213.34375 L 679.085938 213.34375 Z M 679.085938 159.792969 "/>
<path fill-rule="nonzero" fill="rgb(0%, 0%, 0%)" fill-opacity="1" d="M 742.042969 186.929688 L 721.609375 159.792969 L 705.824219 159.792969 L 735.605469 198.875 L 735.605469 225.554688 L 748.476562 225.554688 L 748.476562 198.875 L 778.257812 159.792969 L 762.476562 159.792969 Z M 742.042969 186.929688 "/>
<path fill-rule="nonzero" fill="rgb(0%, 0%, 0%)" fill-opacity="1" d="M 783.859375 172.003906 L 809.789062 172.003906 L 809.789062 225.554688 L 822.65625 225.554688 L 822.65625 172.003906 L 848.589844 172.003906 L 848.589844 159.792969 L 783.859375 159.792969 Z M 783.859375 172.003906 "/>
<path fill-rule="nonzero" fill="rgb(0%, 0%, 0%)" fill-opacity="1" d="M 857.222656 225.554688 L 869.90625 225.554688 L 869.90625 159.792969 L 857.222656 159.792969 Z M 857.222656 225.554688 "/>
<path fill-rule="nonzero" fill="rgb(0%, 0%, 0%)" fill-opacity="1" d="M 930.554688 212.640625 C 926.859375 213.988281 922.976562 214.65625 918.90625 214.65625 C 914.144531 214.65625 909.964844 213.6875 906.363281 211.742188 C 902.761719 209.804688 899.976562 207.175781 898.003906 203.851562 C 896.03125 200.535156 895.042969 196.804688 895.042969 192.675781 C 895.042969 188.605469 896.046875 184.890625 898.050781 181.542969 C 900.054688 178.191406 902.839844 175.542969 906.410156 173.601562 C 909.980469 171.660156 913.988281 170.6875 918.4375 170.6875 C 922.695312 170.6875 926.71875 171.457031 930.507812 172.992188 C 934.296875 174.527344 937.664062 176.640625 940.609375 179.335938 L 941.359375 179.335938 L 941.359375 165.804688 C 938.792969 163.738281 935.488281 162.046875 931.449219 160.730469 C 927.410156 159.417969 922.820312 158.757812 917.683594 158.757812 C 910.859375 158.757812 904.734375 160.246094 899.316406 163.21875 C 893.898438 166.195312 889.6875 170.265625 886.683594 175.4375 C 883.675781 180.601562 882.171875 186.347656 882.171875 192.675781 C 882.171875 199.0625 883.660156 204.839844 886.636719 210.007812 C 889.609375 215.175781 893.824219 219.230469 899.269531 222.175781 C 904.722656 225.117188 911.046875 226.589844 918.246094 226.589844 C 923.070312 226.589844 927.566406 225.902344 931.730469 224.523438 C 935.894531 223.144531 939.292969 221.265625 941.925781 218.882812 L 941.925781 205.921875 L 941.078125 205.921875 C 937.757812 209.054688 934.25 211.292969 930.554688 212.640625 "/>
<path fill-rule="nonzero" fill="rgb(0%, 0%, 0%)" fill-opacity="1" d="M 997.300781 193.566406 C 993.445312 190.40625 987.605469 188.101562 979.777344 186.660156 C 975.640625 185.910156 972.496094 185.113281 970.335938 184.265625 C 968.175781 183.417969 966.6875 182.46875 965.871094 181.398438 C 965.058594 180.335938 964.652344 179.113281 964.652344 177.734375 C 964.652344 176.296875 965.074219 174.996094 965.917969 173.835938 C 966.765625 172.679688 968.125 171.722656 970.007812 170.972656 C 971.886719 170.21875 974.265625 169.84375 977.148438 169.84375 C 981.152344 169.84375 985.085938 170.488281 988.9375 171.769531 C 992.789062 173.054688 995.96875 174.632812 998.472656 176.515625 L 999.128906 176.515625 L 999.128906 164.582031 C 996.75 162.957031 993.570312 161.59375 989.59375 160.496094 C 985.617188 159.402344 981.375 158.851562 976.863281 158.851562 C 971.855469 158.851562 967.46875 159.683594 963.710938 161.339844 C 959.953125 163.003906 957.070312 165.257812 955.070312 168.105469 C 953.0625 170.957031 952.0625 174.132812 952.0625 177.640625 C 952.0625 182.84375 953.894531 186.976562 957.558594 190.046875 C 961.222656 193.113281 966.90625 195.371094 974.609375 196.804688 C 978.742188 197.5625 981.953125 198.390625 984.242188 199.296875 C 986.523438 200.207031 988.121094 201.222656 989.03125 202.351562 C 989.9375 203.476562 990.394531 204.855469 990.394531 206.484375 C 990.394531 208.113281 989.90625 209.597656 988.9375 210.945312 C 987.964844 212.292969 986.433594 213.390625 984.332031 214.234375 C 982.234375 215.082031 979.589844 215.503906 976.394531 215.503906 C 972.636719 215.503906 968.691406 214.859375 964.554688 213.574219 C 960.421875 212.292969 956.820312 210.523438 953.753906 208.269531 L 953.09375 208.269531 L 953.09375 220.484375 C 956.039062 222.300781 959.65625 223.753906 963.945312 224.851562 C 968.234375 225.945312 972.542969 226.496094 976.863281 226.496094 C 982.4375 226.496094 987.199219 225.601562 991.144531 223.816406 C 995.089844 222.03125 998.066406 219.625 1000.070312 216.585938 C 1002.074219 213.542969 1003.078125 210.148438 1003.078125 206.390625 C 1003.078125 201.003906 1001.148438 196.726562 997.300781 193.566406 "/>
</svg>
