<?xml version="1.0" encoding="UTF-8"?>
<svg xmlns="http://www.w3.org/2000/svg" xmlns:xlink="http://www.w3.org/1999/xlink" width="495.66" height="270.35" viewBox="70.797 70.586 495.66 270.351">
<path fill-rule="nonzero" fill="rgb(0%, 0%, 0%)" fill-opacity="1" d="M 490.757812 265.238281 L 490.542969 265.238281 C 448.734375 265.238281 414.84375 299.128906 414.84375 340.9375 L 414.84375 339.878906 L 566.457031 339.878906 L 566.457031 340.9375 C 566.457031 299.128906 532.566406 265.238281 490.757812 265.238281 "/>
<path fill-rule="nonzero" fill="rgb(0%, 0%, 0%)" fill-opacity="1" d="M 225.839844 74.585938 L 225.839844 136.832031 C 221.582031 101.769531 191.769531 74.585938 155.554688 74.585938 L 145.652344 74.585938 C 106.519531 74.585938 74.796875 106.3125 74.796875 145.445312 L 74.796875 338.6875 L 226.414062 338.6875 L 226.414062 276.441406 C 230.667969 311.503906 260.480469 338.6875 296.695312 338.6875 L 306.597656 338.6875 C 345.730469 338.6875 377.453125 306.964844 377.453125 267.832031 L 377.453125 74.585938 Z M 225.839844 74.585938 "/>
</svg>
